<?xml version="1.0" encoding="UTF-8"?>
<svg id="Layer_1" data-name="Layer 1" xmlns="http://www.w3.org/2000/svg" viewBox="0 0 9.01 8.67">
  <defs>
    <style>
      .cls-1 {
        fill: #10182a;
      }
    </style>
  </defs>
  <path class="cls-1" d="M0,0v3.13h3.15c.03.88.42,1.84,1.29,2.7l.43-.55c-1.15-1.13-1.25-2.22-.92-3.07.33-.85,1.15-1.47,1.94-1.48h2.46v1.67h-2.62v.73h3.26V0h-3.12c-1.08.02-2.09.79-2.53,1.93-.06.15-.11.32-.14.48H.65V.73h3.07v-.73H0ZM5.12,2.57l-.55.4c.62,1.08.78,2.25.55,3.18-.19.78-.67,1.43-1.47,1.71v-2.04h-.65v2.5l.38.36c1.25-.24,2.08-1.17,2.37-2.33.29-1.16.07-2.54-.63-3.77Z"/>
</svg>