<?xml version="1.0" encoding="UTF-8"?>
<svg id="Layer_1" data-name="Layer 1" xmlns="http://www.w3.org/2000/svg" viewBox="0 0 482.26 358.52">
  <defs>
    <style>
      .cls-1 {
        fill: #a57c52;
      }
    </style>
  </defs>
  <path class="cls-1" d="M320.77,358.52h-94.42c2.57-68.08-6.95-140.05,3.52-206.33,44.79-49.56,89.02-99.38,134.37-148.45,38.12,47.84,75,96.19,112.83,144.19,3.7,4.7,5.2,9.34,5.19,15.26-.15,65.12-.06,130.17-.05,195.29h-76.26c-1.24-68.54,2.27-138.06-1.45-206.11-12.83-16.05-25.9-31.91-39.22-48.21-10.25,13.09-43.28,42.54-44.44,56.34-.21,66.05-.09,131.97-.07,198.03Z"/>
  <path class="cls-1" d="M142.22,0c6.14,6.92,11.91,13.42,18.04,20.32-38.38,41.84-76.7,83.42-114.83,125.44-2.21,2.44-3.68,6.52-3.69,9.85-.17,67.63-.03,135.16,0,202.8H.95c2.55-68.81-5.27-140.35,2.86-207.88C49.98,100.37,95.45,49.57,142.22,0Z"/>
  <path class="cls-1" d="M219.28.89c5.53,5.99,10.29,11.15,15.41,16.7-38.17,41.9-75.74,83.38-113.85,125.17-3.22,3.52-4.83,7.09-4.81,12.15.26,67.85.27,135.63.32,203.49h-39.4c-1.06-64.97-.12-130.02-.7-195.02-.02-5.43,1.68-9.21,5.31-13.13C127.48,100.44,173.89,51.16,219.28.89Z"/>
  <path class="cls-1" d="M191.14,358.47h-39.13c2.22-67.6-6.4-138.89,3.26-204.81C201.45,102.7,247.82,51.91,294.72.45c5.27,5.79,10.36,11.38,15.78,17.32-38.44,42.18-76.27,83.98-114.88,125.82-3.54,3.82-4.73,7.67-4.71,12.79.21,67.4.19,134.68.23,202.09Z"/>
</svg>