<?xml version="1.0" encoding="UTF-8"?>
<svg id="Layer_1" data-name="Layer 1" xmlns="http://www.w3.org/2000/svg" viewBox="0 0 1677.15 669.38">
  <defs>
    <style>
      .cls-1 {
        fill: #6d2a22;
      }
    </style>
  </defs>
  <g>
    <path class="cls-1" d="M481.04,261.97c7.48-.42,12.47,1.26,19.13,4.2.83,0,1.25.42,2.08.84,11.64,5.03,22.87,10.91,33.68,17.62,16.63,10.07,33.26,20.14,51.14,28.95.83,0,1.66.84,2.91,1.26,5.82,2.94,11.64,5.03,17.46,6.71,2.49.84,4.57,1.68,7.07,2.52,29.1,11.33,60.7,5.45,88.56-7.13,17.46-7.97,33.68-19.3,48.64-31.47,19.96-16.36,34.92-23.92,44.49-23.5.83,5.03,1.25,9.65,1.25,14.69v15.52c0,15.1-1.25,29.37-5.4,44.06,0,1.26-.42,2.1-.83,3.36-7.9,26.85-20.37,54.97-40.75,74.27-.42.42-.83.84-1.66,1.26-8.32,8.39-17.05,15.52-27.02,22.24-.42,0-1.25.84-1.66,1.26-33.68,22.24-75.67,30.21-114.75,21.82-23.7-5.45-45.73-16.78-64.44-32.31-.42-.42-1.25-.84-1.66-1.68-18.29-15.1-31.18-32.31-41.16-54.13-.83-2.1-1.66-3.78-2.91-5.87-14.55-31.05-19.54-68.81-15.38-102.8l.83-2.1h0l.42.42Z"/>
    <path class="cls-1" d="M870.62,73.58c7.07,4.62,14.14,11.33,16.63,19.3,0,4.62-204.14,214.41-205.39,215.67-6.65,6.71-13.3,7.55-22.87,7.97h-22.87c1.25-3.36,2.91-5.45,5.4-7.97.83-.84,1.25-1.26,2.08-2.1.83-.84,1.25-1.68,2.08-2.1,1.66-1.68,2.91-3.36,4.57-4.62.83-.84,1.25-1.68,2.08-2.52,4.57-4.62,8.73-9.65,13.3-14.27,1.66-2.1,3.74-4.2,5.4-5.87.42-.42.83-.84,1.25-1.68,3.33-3.78,7.07-7.55,10.39-11.33,6.65-7.13,13.3-14.69,19.54-21.82,2.49-2.94,5.4-5.87,7.9-9.23,4.99-5.45,9.98-11.33,14.97-17.2,2.49-2.94,4.99-5.45,7.48-7.97,2.49-2.52,4.57-5.03,7.07-7.55,2.08-2.52,4.16-5.03,6.65-7.55,2.49-2.94,5.4-5.87,7.9-8.81,4.16-4.62,8.32-9.23,12.89-13.85,4.99-5.45,9.56-10.49,14.55-15.94,2.49-2.52,4.57-5.03,7.07-7.55,1.25-1.68,2.91-3.36,4.16-4.62,5.4-6.29,11.23-12.59,17.05-18.88,4.16-4.62,8.32-8.81,12.47-13.43,7.48-7.97,14.97-15.94,22.45-23.92.42-.42,1.25-1.26,1.66-1.68,1.25-1.26,2.91-2.94,4.16-4.2.83-.84,1.66-1.68,2.08-2.52,5.4-4.62,11.23-5.03,17.88-2.52h0s0,0,0,0v-1.26Z"/>
    <path class="cls-1" d="M604.11,197.35l.83,2.94c-.83,1.26-1.66,2.94-3.33,4.62-12.06,16.78-27.44,41.54-25.36,62.94.83.84,2.08,1.26,3.74,1.26h2.49c0-.42.42-1.26.83-1.68,0-.84.83-1.68,1.25-2.52s.83-1.68,1.25-2.94c.83-2.1,2.08-4.2,2.91-6.29,2.49-5.45,4.99-10.91,7.9-16.78.42-.84.83-2.1,1.25-3.36,1.66-3.36,2.49-5.45,2.91-5.87.83-2.1,3.74-6.71,10.81-17.62.42-.84,1.25-1.68,1.66-2.52.42-.84,1.25-1.68,1.66-2.52,0-.42.83-1.68,2.08-2.1.83,0,1.66-.42,2.08-.42h4.99c-1.66,9.65-2.91,18.04-3.33,23.5-3.74,27.27-4.99,38.18-3.33,52.03,0,2.94.42,5.03.83,6.71,0,0,0,1.26,1.25,2.1.83.84,2.08.84,2.08.84.42,0,1.25-.84,1.66-1.68,0,0,.42-.84.83-2.94,0,0,.42-2.1.83-4.2v-9.65c.83-7.55,1.66-15.1,2.49-22.66.83-10.49,2.08-20.98,3.33-31.89.42-4.2.83-7.97,1.25-12.17h8.32v11.33c0,3.78,0,7.13.83,10.91.42,3.36.42,6.71.83,10.07,0,6.71,1.66,13.43,4.99,19.3,1.66.84,3.33,1.26,4.99.84,1.66-1.68,1.25-4.2,1.25-6.71,0-8.39-2.49-15.94-4.57-23.92-2.49-7.55-4.16-14.69-3.74-22.66,3.33-.42,4.99-.84,8.32,0,3.74,2.94,6.24,6.71,9.15,10.07.42.84,1.25,1.26,1.66,2.1,4.16,5.03,7.9,10.49,11.64,15.94.42.84.83,1.26,1.66,2.1,1.66,2.1,2.91,4.2,4.57,6.29.42.84.83,1.26,1.66,2.1.42.84.83,1.26,1.25,2.1,0,.42.83,1.26,1.25,2.1.42,1.26.42,2.52,0,3.78-1.66,2.1-2.91,4.2-4.99,5.87-.83.84-1.25,1.68-2.08,2.1-.83.84-1.66,1.68-2.08,2.52-3.74,4.2-7.48,7.97-11.23,12.17-2.49,2.94-4.57,5.45-7.48,7.97-.83.84-2.08,2.1-3.33,3.36-.42.42-1.25,1.26-1.66,1.68-5.4,5.45-10.81,10.91-15.38,16.78-1.25,1.68-2.49,2.94-3.74,4.62-.42.42-1.25,1.26-1.66,2.1-2.08,2.1-3.74,3.78-6.65,3.78-6.24-.84-11.64-2.52-17.46-4.62-.83,0-2.08-.84-2.91-1.26-8.32-3.36-15.8-7.13-23.7-11.75-2.49-1.26-4.57-2.52-7.07-3.78-5.4-2.94-10.39-5.87-15.8-9.23-1.66-1.26-3.74-2.52-5.4-3.78-.83-.42-1.66-1.26-2.91-1.68-3.33-2.1-6.65-4.2-9.98-6.29-4.57-2.94-9.15-5.87-13.72-8.81,4.16-11.33,13.3-20.14,21.2-28.53.83-.84,1.66-1.68,2.49-2.52,14.55-15.52,32.85-25.59,51.14-35.24h0l2.49,1.68Z"/>
    <path class="cls-1" d="M772.5,1.41c7.07,2.52,12.47,5.87,16.63,12.17,1.25,4.62.83,7.55-.83,11.75-.83,1.26-1.66,2.94-2.08,4.2,0,.84-.83,1.68-1.25,2.1-.83,1.68-1.66,3.36-2.49,5.03-2.08,3.78-4.16,7.13-5.82,10.91-.83,2.1-2.08,3.78-3.33,5.87-3.33,6.29-6.65,12.59-9.98,18.88-4.16,7.97-8.32,15.94-12.89,23.92-5.4,10.07-11.23,20.14-16.63,30.63-4.99,9.65-10.39,19.3-15.8,28.53-.83,1.26-3.33,5.45-6.24,11.33-1.25,2.52-.83,1.68-2.49,5.45-3.33,6.29-5.4,10.07-7.48,14.27-.42.84-.83,1.68-1.25,2.94-.42.84-.83,1.68-1.25,2.52,0,.84-.83,1.68-1.25,2.52-.83,1.26-2.08,2.1-3.33,2.52-2.91-1.26-5.82-2.52-8.73-3.78-6.24-2.94-11.64-5.45-17.05-8.39,1.25-2.1,2.49-4.2,3.33-6.29,6.24,2.52,12.06,2.52,14.97-.84.42-.42.83-1.26,1.25-2.1.83-1.68.83-2.94.83-4.2,0-3.78-2.49-7.13-4.57-10.49-1.25-1.68-1.66-2.1-2.08-2.94-1.25-3.36,0-6.29,0-7.13,1.25-2.94,2.91-5.87,4.16-8.81.83-1.68,1.66-3.36,2.91-5.03.42-.84.83-1.68,1.66-2.94,2.91-5.03,5.4-10.49,8.32-15.94,3.74-7.55,7.9-15.1,11.64-22.66,4.57-9.23,9.56-18.46,14.14-27.27,3.74-7.55,7.48-14.69,11.64-22.24,2.49-4.62,4.57-8.81,6.65-13.43,1.25-2.52,2.91-5.45,4.16-7.97.83-1.26,1.25-2.52,2.08-4.2,7.48-14.69,14.97-21.4,22.87-20.14h0l-.42,1.26Z"/>
    <path class="cls-1" d="M623.65,153.3c1.25.42,2.91,1.26,4.57,2.52,0,0,.83.84,2.08,1.26,1.25,1.26,3.33,2.94,5.82,5.03,0-.42,1.25-1.68,2.08-2.52,1.66-1.26,2.91-2.1,3.74-2.52,13.72-6.29,22.87-4.62,22.87-4.62,2.91.42,8.32,1.68,13.72,6.29,1.66,1.26,2.91,2.52,4.16,4.2,2.91,4.2,4.16,7.13,3.33,12.17-.83.84-2.49,1.26-4.99,1.26-6.65,0-12.47-2.52-18.29-4.62-1.25,0-2.49-.42-3.33-.84-2.08,0-3.33-.42-4.99,0-3.74.42-5.82,4.2-6.65,5.45-2.08,2.94-1.25,4.62-3.33,6.71-1.25,1.26-2.91,2.1-3.74,2.52-1.25,0-3.33.42-5.4,0-5.4-.84-8.32-4.62-9.15-5.87-2.49-2.1-8.32-6.71-14.14-5.45-3.33.84-8.32,4.2-10.39,5.45,0,0-.83.84-1.66,1.26-3.74,2.52-7.48,2.52-12.06,2.1-2.49-2.52-3.74-4.62-4.16-8.39,0-6.29,2.91-10.91,7.48-15.1,2.49-2.1,7.9-6.29,15.8-7.97,7.9-1.68,14.14,0,17.05.84h0l-.42.84Z"/>
    <path class="cls-1" d="M741.31,256.93c2.91,1.26,4.16,3.36,5.82,6.29.42.84,1.25,1.68,2.08,2.94.42.84.83,1.68,1.25,2.1-9.98,10.07-21.2,19.72-33.68,26.85-1.25.84-2.08,1.26-3.33,2.1-11.23,6.71-18.71,10.91-22.87,12.17-.83,0-2.08-.84-2.91-.84l22.04-22.24c2.49-2.52,5.4-5.45,7.9-7.97,2.49-2.52,2.91-2.94,4.57-4.62.83-.84,2.08-2.1,3.33-3.36,3.74-3.78,3.33-3.36,4.57-4.62,2.08-2.1,2.08-2.52,3.33-3.78,1.25-1.26,2.49-2.52,3.33-2.94,2.08-1.26,3.74-2.1,4.99-2.1h-.42Z"/>
    <path class="cls-1" d="M666.89,197.35c16.63,2.94,34.09,14.27,46.57,25.59-3.74,4.62-7.9,9.23-12.06,13.85-.42.42-.83,1.26-1.66,1.68-1.25,1.26-2.49,2.52-3.74,4.2h-2.08c-.42-.84-.83-2.1-1.66-2.94-6.24-11.75-13.3-22.66-21.62-33.15-.42-.84-1.25-1.26-1.66-2.1-.42-.42-.83-1.26-1.66-2.1-.83-1.26-1.25-2.94-1.25-5.03h.83Z"/>
  </g>
  <g>
    <path class="cls-1" d="M0,490.22h81.07v10.07c-19.13,2.52-22.04,3.78-22.04,26.43v45.31c5.4-1.68,12.06-5.87,20.79-14.27,18.29-18.04,29.94-32.73,37.83-42.8,6.24-8.39,4.99-12.59-7.48-13.85h-4.99v-10.49h69.85v10.07c-18.29,2.52-28.27,3.78-45.32,22.24-10.39,10.91-23.7,24.34-35.34,37.34,16.63,23.92,37.83,52.45,58.21,78.88,9.98,13.01,13.3,14.69,27.02,16.78v10.07h-53.22c-11.23-15.52-34.92-47.83-53.63-75.11-5.4-7.97-9.98-9.65-14.14-8.81v47.83c0,23.08,2.08,23.92,22.45,26.43v10.07H0v-10.07c19.96-2.1,22.87-3.36,22.87-26.43v-102.38c0-22.66-2.49-24.34-22.87-26.43v-10.91Z"/>
    <path class="cls-1" d="M375.02,500.29c-17.05,1.68-21.62,6.71-22.87,16.36-.83,7.97-1.25,17.2-1.25,36.08v35.24c0,23.08-3.74,46.57-19.13,62.94-12.47,13.01-31.18,18.46-50.31,18.46s-35.34-3.78-47.81-13.85c-15.38-11.75-22.87-28.11-22.87-58.32v-68.39c0-24.76-2.49-26.85-22.87-28.53v-10.07h82.74v10.07c-19.96,1.68-22.45,3.78-22.45,28.53v71.75c0,30.21,14.55,50.35,43.24,50.35s45.73-23.92,45.73-64.2v-33.57c0-18.46-.83-28.11-1.25-36.5-1.25-12.59-8.73-15.1-27.44-16.36v-10.07h66.11v10.07h.42Z"/>
    <path class="cls-1" d="M483.95,490.22c34.09,0,59.45,7.13,76.5,23.5,13.72,12.59,24.11,31.47,24.11,58.74s-12.89,54.55-33.26,70.49c-19.96,15.1-45.32,22.66-75.67,22.66h-73.59v-10.07c20.37-1.68,22.87-4.2,22.87-26.43v-102.38c0-22.66-2.91-24.76-22.87-26.43v-10.07h81.91ZM461.5,627.42c0,19.3,4.99,25.59,24.11,25.59,36.17,0,56.96-25.17,56.96-76.36s-7.07-47.83-19.13-59.58c-11.23-11.33-24.95-15.1-42.82-15.1s-14.55,2.1-16.22,3.78c-2.49,2.52-2.91,7.13-2.91,14.69v106.99Z"/>
    <path class="cls-1" d="M706.81,665.61v-10.07c16.63-2.52,16.63-5.45,12.89-16.78-2.49-7.97-7.07-20.14-10.81-31.05h-51.97c-2.91,8.39-6.65,18.46-9.15,26.85-5.4,16.78.83,19.3,22.04,20.98v10.07h-66.11v-10.07c16.63-2.1,21.2-4.62,30.35-27.27l55.71-139.3,12.89-2.52c17.05,46.99,35.34,94.83,52.8,139.72,9.98,25.17,12.47,26.85,29.52,28.95v10.07h-77.33l-.83.42ZM683.52,536.79c-7.9,19.3-15.38,37.34-22.04,57.06h42.41l-20.37-57.06Z"/>
    <path class="cls-1" d="M993.69,500.29c-16.22,2.1-21.2,5.45-22.04,17.62-.83,10.49-1.66,19.72-1.66,43.22v107.41h-14.97l-111.43-134.69v60.84c0,23.5.42,33.99,1.25,41.96,1.25,11.75,6.65,18.04,26.61,19.3v10.07h-66.11v-10.07c15.38-1.26,22.04-5.45,23.7-18.04,1.25-9.65,1.66-19.3,1.66-42.8v-63.78c0-8.81-.42-14.69-5.4-21.82-4.99-6.71-11.23-7.55-22.45-8.81v-10.07h51.97l101.86,119.58v-48.67c0-23.5,0-32.31-1.25-42.38-.83-11.75-4.99-17.2-27.44-18.46v-10.07h66.11v10.07l-.42-.42Z"/>
  </g>
</svg>