<svg xmlns="http://www.w3.org/2000/svg" viewBox="0 0 1130.09 1302.76" width="40" height="40">
  <defs>
    <style>
      .cls-1 {
        fill: #9bd3ae;
        fill-rule: evenodd;
      }
      .cls-2 {
        fill: #47a5ae;
        fill-rule: evenodd;
      }
    </style>
  </defs>
  <path
    class="cls-1"
    d="M470.52,207.91c-.98-5.4-1.6-10.92-1.83-16.57-2.14-52.3,34.45-117.53,67.04-157.65L563.11,0l27.59,33.1c33.78,39.1,72.23,103.01,71.69,155.24-.06,6.32-.62,12.5-1.62,18.53,81.17-17.38,138-17.83,178.54,29.47,24.1,28.12,50.53,70.72,62.77,111.67,4.2-3.57,8.7-6.89,13.5-9.93,44.18-27.98,119.07-28.96,170.07-20.76l41.99,6.75-13.9,40.2c-16.88,48.83-53.15,114.37-98.72,140.05-5.4,3.05-10.93,5.62-16.56,7.74,58.12,64.29,85.96,113.29,63.12,170.38-12.88,35.09-35.84,78.54-64.91,109.32,5.17,1.85,10.26,4.07,15.27,6.69,46.32,24.28,84.61,88.64,103.01,136.91l15.15,39.75-41.77,8.06c-50.73,9.79-125.62,11.16-170.65-15.47-5.44-3.22-10.52-6.79-15.24-10.67-12.72,39.35-38.02,79.22-61.19,106.82-41.32,49.23-90.34,53.38-181.67,31.67.98,5.4,1.6,10.93,1.83,16.58,2.14,52.25-34.46,117.59-67.06,157.66l-26.84,33-27.87-32.14c-33.84-39.04-72.47-103.22-71.93-155.52.06-6.32.62-12.5,1.62-18.54-79.77,17.08-140.15,19.96-179.23-30.29-23.93-28.7-50.04-70.26-62.15-110.79-4.19,3.55-8.66,6.84-13.43,9.87-44.25,28.02-119.05,28.92-170.04,20.76l-40.31-6.45,11.73-39.1c3.02-10.08,8.43-22,12.77-31.53,9.59-21.06,20.98-41.91,34.54-60.69,13.9-19.24,31.03-37.49,51.87-49.24,5.5-3.1,11.13-5.71,16.87-7.86-54.89-60.77-87.01-111.29-63.42-170.26,12.86-35.09,35.84-78.54,64.92-109.32-5.17-1.85-10.26-4.08-15.27-6.7-46.32-24.28-84.61-88.64-103.01-136.91L0,328.33l41.76-8.06c50.73-9.79,125.62-11.16,170.65,15.47,5.44,3.22,10.52,6.79,15.24,10.67,17.5-54.13,55.28-129.97,115.33-139.98,36.85-6.46,86.19-8.34,127.53,1.49M349.01,241.64s95.9-16.93,145.49,13.47c49.61,30.4,45.58,96.98,45.58,96.98,0,0-55.68,36.71-106.77,8.91-51.08-27.81-84.3-119.36-84.3-119.36ZM632.17,255.11c-49.62,30.4-45.58,96.98-45.58,96.98l-6.98,118.7h12.98s-3.45-83.02,10.37-90.79c13.83-7.79,43.63-8.72,43.63-8.72h-.02c14.85.72,31.03-1.72,46.78-10.28,51.1-27.82,84.3-119.36,84.3-119.36,0,0-95.9-16.93-145.48,13.46ZM781.07,1061.81s-95.9,16.93-145.5-13.47c-49.61-30.4-45.58-96.98-45.58-96.98,0,0,55.68-36.71,106.77-8.91,51.08,27.82,84.3,119.35,84.3,119.35ZM497.92,1048.34c49.62-30.4,45.57-96.98,45.57-96.98l6.98-118.7h-12.98s3.45,83.02-10.37,90.79c-13.83,7.79-43.62,8.72-43.62,8.72h.02c-14.85-.72-31.02,1.72-46.78,10.28-51.1,27.82-84.31,119.36-84.31,119.36,0,0,95.9,16.93,145.49-13.46ZM566.63,1247.22s-63.8-73.59-63.2-131.75c.6-58.18,59.78-88.93,59.78-88.93,0,0,60.09,28.91,62.49,87.02,2.38,58.13-59.07,133.65-59.07,133.65ZM812.17,259.6s62.61,74.59,61.08,132.74c-1.52,58.16-61.2,87.97-61.2,87.97,0,0-59.63-29.87-61.1-88.01-1.45-58.15,61.21-132.69,61.21-132.69ZM942.09,511.55c-51.14-27.77-106.77,9.02-106.77,9.02l-106.28,53.31,6.49,11.24s70.17-44.5,83.81-36.41c13.66,8.08,29.36,33.42,29.36,33.42v-.02c6.79,13.22,16.99,26.01,32.28,35.38,49.64,30.34,145.52,13.33,145.52,13.33,0,0-33.28-91.52-84.4-119.26ZM1079.97,352.6s-31.83,92.05-82.5,120.6c-50.68,28.57-106.91-7.31-106.91-7.31,0,0-5-66.5,44.12-97.63,49.15-31.12,145.28-15.67,145.28-15.67ZM317.91,1043.85s-62.61-74.59-61.08-132.74c1.52-58.16,61.2-87.97,61.2-87.97,0,0,59.64,29.87,61.1,88.01,1.45,58.15-61.21,132.69-61.21,132.69ZM188,791.9c51.14,27.77,106.78-9.02,106.78-9.02l106.28-53.3-6.49-11.24s-70.17,44.5-83.81,36.41c-13.66-8.08-29.37-33.42-29.37-33.42v.02c-6.79-13.22-16.99-26.01-32.28-35.38-49.64-30.34-145.52-13.33-145.52-13.33,0,0,33.28,91.52,84.4,119.27ZM50.12,950.84s31.83-92.05,82.5-120.6c50.68-28.57,106.91,7.31,106.91,7.31,0,0,5,66.5-44.12,97.63-49.15,31.12-145.28,15.67-145.28,15.67ZM1028.2,669.68s-33.29,91.52-84.41,119.27c-51.13,27.76-106.78-9.01-106.78-9.01,0,0-3.95-66.58,45.67-96.92,49.63-30.33,145.52-13.33,145.52-13.33ZM874.96,908.16c-1.52-58.17-61.2-87.96-61.2-87.96l-99.31-65.39-6.49,11.24s73.62,38.52,73.44,54.38c-.17,15.87-14.26,42.14-14.26,42.14h.02c-8.06,12.48-14.03,27.71-14.5,45.63-1.45,58.16,61.21,132.69,61.21,132.69,0,0,62.61-74.58,61.08-132.73ZM1081.55,948.1s-95.63,18.46-145.69-11.14c-50.08-29.6-47.12-96.24-47.12-96.24,0,0,55.08-37.58,106.61-10.61,51.53,27.01,86.21,117.98,86.21,117.98ZM101.89,633.77s33.29-91.51,84.41-119.27c51.13-27.76,106.78,9.02,106.78,9.02,0,0,3.95,66.58-45.67,96.92-49.63,30.33-145.52,13.33-145.52,13.33ZM255.13,395.28c1.52,58.17,61.2,87.96,61.2,87.96l99.31,65.39,6.49-11.24s-73.62-38.52-73.44-54.38c.17-15.87,14.26-42.14,14.26-42.14h-.02c8.06-12.48,14.03-27.71,14.5-45.63,1.45-58.16-61.21-132.69-61.21-132.69,0,0-62.61,74.59-61.08,132.73ZM48.54,355.35s95.63-18.46,145.69,11.14c50.08,29.6,47.12,96.24,47.12,96.24,0,0-55.08,37.58-106.61,10.6-51.53-27.01-86.21-117.98-86.21-117.98ZM563.46,56.23s63.8,73.59,63.2,131.75c-.6,58.17-59.78,88.93-59.78,88.93,0,0-60.09-28.91-62.49-87.02-2.38-58.13,59.07-133.65,59.07-133.65ZM548.67,388.36c-10.62,5.49-22.57,10.04-33.15,13.01-29.6,8.31-60.59,8-88.74-3.91l-24.34,45.38c-2.45,5.44-5.29,10.74-8.5,15.87-1.96,3.8-4.84,9.97-6.93,15.56,14.12,10.88,41.26,26.01,51.68,31.47l33,17.26-44.06,76.31-98.85-65.09c-.55,11.95-2.59,24.56-5.31,35.22-7.65,29.96-23.26,56.45-47.76,74.91l27.12,43.76c3.49,4.84,6.66,9.95,9.5,15.30,2.31,3.6,6.22,9.18,10.01,13.78,16.48-6.79,43.15-22.73,53.09-29.03l31.45-19.94,44.05,76.31-105.79,53.06c10.07,6.45,19.98,14.53,27.84,22.21,22.12,21.6,37.26,48.37,40.99,78.81l51.47-1.61c5.93-.6,11.94-.79,17.99-.57,4.27-.2,11.06-.79,16.94-1.78,2.36-17.67,1.89-48.73,1.41-60.49l-1.55-37.21h88.12l-6.95,118.15c10.62-5.49,22.57-10.04,33.15-13.01,29.6-8.31,60.59-8,88.75,3.91l24.35-45.4c2.44-5.43,5.28-10.72,8.49-15.85,1.96-3.8,4.84-9.98,6.93-15.57-14.12-10.88-41.26-26-51.68-31.47l-33-17.26,44.06-76.31,98.85,65.09c.55-11.95,2.59-24.56,5.31-35.22,7.64-29.96,23.26-56.45,47.75-74.91l-27.13-43.77c-3.49-4.84-6.65-9.94-9.49-15.29-2.31-3.6-6.22-9.18-10.01-13.78-16.48,6.79-43.15,22.73-53.09,29.03l-31.45,19.94-44.06-76.31,105.8-53.06c-10.07-6.45-19.98-14.53-27.84-22.21-22.12-21.6-37.26-48.37-40.99-78.81l-51.48,1.61c-5.93.6-11.93.79-17.97.57-4.27.2-11.06.79-16.95,1.78-2.36,17.67-1.89,48.73-1.41,60.49l1.55,37.21h-88.11l6.95-118.15Z" />
  <path
    class="cls-2"
    d="M383.44,261.53c14.98,30.73,37.7,65.71,61.27,78.54,16.73,9.11,35.47,9.13,53.5,4.3,5.45-1.46,11.75-3.66,17.66-6.29-.67-6.44-1.91-12.99-3.36-18.44-4.82-18.07-14.16-34.25-30.44-44.22-22.88-14.02-64.52-16.24-98.62-13.88M610.32,345.63l37.42,1.84c12.06.6,23.57-1.62,34.22-7.4,23.58-12.84,46.29-47.81,61.27-78.54-34.1-2.36-75.74-.14-98.62,13.88-16.29,9.98-25.62,26.15-30.44,44.22-2.03,7.62-3.65,17.4-3.86,26ZM746.64,1041.91c-14.98-30.73-37.7-65.71-61.27-78.54-16.74-9.11-35.47-9.13-53.5-4.3-5.44,1.46-11.74,3.66-17.66,6.29.67,6.44,1.91,12.99,3.36,18.44,4.82,18.07,14.16,34.25,30.44,44.22,22.88,14.02,64.52,16.24,98.62,13.88ZM519.76,957.81l-37.42-1.84c-12.06-.59-23.57,1.62-34.22,7.4-23.58,12.84-46.29,47.81-61.27,78.54,34.1,2.36,75.74.14,98.62-13.88,16.28-9.98,25.62-26.15,30.43-44.22,2.03-7.62,3.65-17.4,3.86-26ZM563.64,1054.53c-5.18,3.88-10.16,8.31-14.09,12.36-13.03,13.42-22.11,29.74-22.3,48.83-.28,26.83,19.21,63.7,38.76,91.74,18.66-28.64,36.99-66.09,35.9-92.91-.79-19.07-10.37-35.1-23.8-48.11-4.05-3.92-9.16-8.19-14.46-11.91ZM812.16,299.36c-19.12,28.34-38.06,65.5-37.39,92.33.48,19.08,9.8,35.26,23.03,48.48,3.99,3.99,9.04,8.34,14.28,12.15,5.24-3.8,10.3-8.15,14.29-12.13,13.24-13.21,22.58-29.38,23.08-48.47.7-26.83-18.19-64-37.29-92.35ZM991.99,610.83c-15-30.69-37.72-65.56-61.27-78.34-16.72-9.08-35.51-9.1-53.51-4.25-7.61,2.05-16.89,5.54-24.44,9.66l17.11,33.33c5.52,10.74,13.19,19.61,23.52,25.94,12.62,7.72,29.58,11.27,44.11,12.98,17.87,2.1,36.47,1.99,54.48.69ZM914.58,451.53c5.95,2.55,12.28,4.65,17.75,6.02,18.13,4.57,36.81,4.28,53.44-5.1,23.37-13.18,45.56-48.49,60.07-79.44-34.14-1.84-75.74,1.01-98.42,15.37-16.13,10.22-25.21,26.53-29.76,44.67-1.37,5.47-2.51,12.03-3.09,18.47ZM317.93,1004.09c19.01-28.16,38.06-65.34,37.39-92.33-.48-19.08-9.81-35.26-23.03-48.48-3.99-3.98-9.04-8.35-14.28-12.15-5.24,3.8-10.3,8.15-14.29,12.13-13.24,13.21-22.58,29.38-23.08,48.47-.7,26.82,18.19,63.99,37.29,92.35ZM277.32,765.56l-17.11-33.33c-5.52-10.74-13.19-19.61-23.52-25.94-22.91-14-64.55-16.18-98.65-13.79,15,30.72,37.75,65.67,61.33,78.47,16.72,9.08,35.51,9.1,53.51,4.25,7.61-2.05,16.89-5.54,24.44-9.66ZM84.24,930.43c34.14,1.84,75.74-1.01,98.41-15.37,16.12-10.22,25.21-26.52,29.76-44.65,1.37-5.47,2.52-12.04,3.09-18.49-5.95-2.54-12.28-4.65-17.75-6.02-18.13-4.57-36.81-4.27-53.44,5.1-23.52,13.26-45.65,48.68-60.07,79.44ZM993.76,689.55c-33.89-2.38-75.62-.29-98.65,13.79-16.29,9.96-25.64,26.12-30.47,44.18-1.46,5.45-2.71,12-3.38,18.44,5.91,2.64,12.21,4.84,17.65,6.31,18,4.85,36.79,4.83,53.52-4.25,23.58-12.8,46.32-47.75,61.33-78.47ZM807.49,843.98l-20.31,31.49c-6.55,10.15-10.39,21.22-10.71,33.34-.67,26.84,18.26,63.99,37.38,92.33,19.1-28.35,37.99-65.52,37.29-92.35-.5-19.09-9.84-35.26-23.08-48.47-5.58-5.57-13.24-11.86-20.58-16.34ZM1046.81,928.76c-15.47-30.48-38.74-65.08-62.52-77.54-16.85-8.82-35.64-8.55-53.56-3.44-5.42,1.55-11.68,3.84-17.55,6.57.77,6.43,2.12,12.96,3.66,18.38,5.11,17.99,14.7,34.01,31.14,43.73,23.1,13.66,64.77,15.21,98.83,12.3ZM136.63,613.92c34.05,2.36,75.52.14,98.35-13.81,16.29-9.96,25.64-26.12,30.47-44.18,1.46-5.45,2.71-12,3.38-18.44-5.91-2.64-12.21-4.84-17.65-6.31-18-4.85-36.79-4.83-53.52,4.25-24.94,13.54-46.17,47.71-61.04,78.49ZM322.6,459.47l20.31-31.49c6.55-10.15,10.39-21.22,10.7-33.34.67-26.84-18.26-63.99-37.38-92.33-19.1,28.35-37.99,65.52-37.29,92.35.5,19.09,9.84,35.26,23.08,48.47,5.58,5.56,13.24,11.86,20.58,16.34ZM83.28,374.69c15.47,30.48,38.75,65.08,62.52,77.54,16.85,8.82,35.64,8.55,53.56,3.44,5.42-1.55,11.68,3.84,17.55-6.57-.77-6.42-2.12-12.96-3.66-18.38-5.11-17.99-14.7-34.01-31.14-43.73-23.1-13.66-64.77-15.21-98.83-12.3ZM564.08,95.99c-18.66,28.64-36.99,66.1-35.9,92.91.79,19.07,10.37,35.1,23.8,48.1,4.05,3.92,9.17,8.2,14.46,11.92,5.18-3.88,10.17-8.31,14.09-12.36,13.03-13.42,22.11-29.74,22.3-48.83.28-26.83-19.21-63.7-38.76-91.74Z" />
</svg>
